<?xml version="1.0" encoding="UTF-8"?>
<svg id="Layer_1" xmlns="http://www.w3.org/2000/svg" version="1.1" viewBox="0 0 1880 1550">
  <!-- Generator: Adobe Illustrator 29.5.0, SVG Export Plug-In . SVG Version: 2.1.0 Build 137)  -->
  <defs>
    <style>
      .st0 {
        font-family: Pretendard-Medium-KSCpc-EUC-H, Pretendard;
        font-size: 30px;
        font-weight: 500;
      }

      .st1 {
        fill: #ffe6e6;
        stroke: red;
        stroke-linejoin: round;
        stroke-width: 5px;
      }
    </style>
  </defs>
  <polygon class="st1" points="1021.03 1340.45 972.5 1361.72 949.88 1414.87 905.18 1427.15 871.11 1462.57 789.33 1462.57 743.28 1436.4 734.56 1409.15 720.11 1402.87 704.28 1372.9 681.41 1372.9 668.31 1354.9 672.68 1331.47 643.23 1309.65 635.06 1284.58 661.23 1271.5 649.78 1246.42 611.61 1237.15 615.98 1207.72 703.21 1184.28 727.18 1155.93 758.81 1157.55 773.53 1185.35 785.53 1184.28 799.16 1167.38 839.48 1166.83 853.04 1177.45 876.56 1166.83 888.55 1180.45 888.55 1231.15 909.28 1258.95 958.88 1258.95 968.22 1284.58 991.58 1293.3 1021.03 1340.45"/>
  <text class="st0" transform="translate(785.07 1333.23)"><tspan x="0" y="0">관악구</tspan></text>
</svg>