<?xml version="1.0" encoding="UTF-8"?>
<svg id="Layer_1" xmlns="http://www.w3.org/2000/svg" version="1.1" viewBox="0 0 1880 1550">
  <!-- Generator: Adobe Illustrator 29.5.0, SVG Export Plug-In . SVG Version: 2.1.0 Build 137)  -->
  <defs>
    <style>
      .st0 {
        font-family: Pretendard-Medium-KSCpc-EUC-H, Pretendard;
        font-size: 30px;
        font-weight: 500;
      }

      .st1 {
        fill: #ffe6e6;
        stroke: red;
        stroke-linejoin: round;
        stroke-width: 5px;
      }
    </style>
  </defs>
  <polygon class="st1" points="615.98 1207.72 611.61 1237.15 558.19 1237.15 548.93 1207.72 528.21 1193 486.78 1177.45 455.16 1161.38 416.99 1228.98 377.74 1220.53 348.04 1266.05 287.26 1264.68 232.74 1242.33 253.46 1197.08 249.91 1160.55 231.92 1128.4 265.99 1050.7 305.24 1097.05 313.41 1128.68 339.59 1116.68 342.31 1096.5 384.29 1070.33 435.54 1081.78 446.99 1104.68 477.51 1104.68 485.69 1061.6 528.76 1052.35 573.46 1080.7 593.08 1177.45 615.98 1207.72"/>
  <text class="st0" transform="translate(302.68 1185.11)"><tspan x="0" y="0">구로구</tspan></text>
</svg>