<?xml version="1.0" encoding="UTF-8"?>
<svg id="Layer_1" xmlns="http://www.w3.org/2000/svg" version="1.1" viewBox="0 0 1880 1550">
  <!-- Generator: Adobe Illustrator 29.5.0, SVG Export Plug-In . SVG Version: 2.1.0 Build 137)  -->
  <defs>
    <style>
      .st0 {
        font-family: Pretendard-Medium-KSCpc-EUC-H, Pretendard;
        font-size: 30px;
        font-weight: 500;
      }

      .st1 {
        fill: #ffe6e6;
        stroke: red;
        stroke-linejoin: round;
        stroke-width: 5px;
      }
    </style>
  </defs>
  <path class="st1" d="M1445.42,1387.07s.27,45.25,1.1,45.25c0,.19-73.87,16.9-73.87,16.9l-18.53,62.7-70.05,13.08-37.9-43.07-43.88-20.7-4.1-126.49-21.8-8.98s-23.3,42.52-24.27,42.52c-.8-.27-60.78-4.65-60.78-4.65l-26.98-47.15-22.35-9.55-21,33.52-29.45-47.15-23.36-8.72-9.34-25.62,20.17-19.62v-69.23l12.53-14.45-3.25-26.98-20.11-2.2-8.79-28.35,1.08-21.25h66.52l37.62-29.45,8.18-29.43,32.38-34.64,25.94,37.37,2.73,43.07,43.07,83.95v30.53l31.6,33.8,28.9,4.35,16.9,18.55-10.35,21.25,69.23,56.15,25.62-15.25v-14.72l23.45-13.08,21.8,8.72,34.9-15.27,30.53,18.53,27.53,68.42-31.62,37.35Z"/>
  <text class="st0" transform="translate(1077.84 1258.95)"><tspan x="0" y="0">서초구</tspan></text>
</svg>