<?xml version="1.0" encoding="UTF-8"?>
<svg id="Layer_1" xmlns="http://www.w3.org/2000/svg" version="1.1" viewBox="0 0 1880 1550">
  <!-- Generator: Adobe Illustrator 29.0.0, SVG Export Plug-In . SVG Version: 2.1.0 Build 186)  -->
  <defs>
    <style>
      .st0 {
        font-family: Pretendard-Medium, Pretendard;
        font-size: 30px;
        font-weight: 500;
      }

      .st1 {
        fill: #ffe6e6;
        stroke: red;
        stroke-linejoin: round;
        stroke-width: 5px;
      }
    </style>
  </defs>
  <polygon class="st1" points="1162.35 704.53 1162.35 731.93 1145.6 747.88 1099.8 756.06 1038.88 751.96 1007.8 763.41 946.88 750.73 897 760.13 885.96 731.72 861.85 714.36 874.93 657.11 867.56 595.78 807.88 556.11 836.5 516.46 826.28 486.61 865.11 433.06 935.16 401.71 955.88 434.29 981.23 491.94 992.68 564.71 970.6 598.64 992.68 624.41 1034.8 621.54 1060.15 629.31 1066.28 659.98 1083.03 684.09 1117.04 687.78 1162.35 704.53"/>
  <text class="st0" transform="translate(934.9 693.89)"><tspan x="0" y="0">종로구</tspan></text>
</svg>