<?xml version="1.0" encoding="UTF-8"?>
<svg id="Layer_1" xmlns="http://www.w3.org/2000/svg" version="1.1" viewBox="0 0 75.09 100">
  <!-- Generator: Adobe Illustrator 29.5.0, SVG Export Plug-In . SVG Version: 2.1.0 Build 137)  -->
  <defs>
    <style>
      .st0 {
        fill: #21201f;
      }

      .st1 {
        fill: #fff;
      }

      .st2 {
        fill: #ffd200;
      }

      .st3 {
        fill: #ffe4d9;
      }

      .st4 {
        fill: #453d37;
      }
    </style>
  </defs>
  <path class="st2" d="M75.09,37.54c0,39.75-37.54,62.46-37.54,62.46,0,0-37.54-22.7-37.54-62.46C0,16.81,16.81,0,37.54,0s37.54,16.81,37.54,37.54h0Z"/>
  <path class="st1" d="M37.52,69.8c-7.04,0-12.7-1.52-16.83-4.53-2.53-1.85-4.47-4.42-5.59-7.37-.3-.29-.56-.63-.75-1.01-.01,0-.02-.01-.03-.01l-.06-.03-.03-.02c-4.45-2.26-6.47-6.46-5.28-10.95h0c-2.23-9.87-1.45-17.63,2.34-23.05,2.89-4.13,6.68-5.71,8.83-6.3,2.41-2.6,9.05-8.52,19.38-8.52,2.92,0,5.93.48,8.95,1.44,7.54,2.4,12.92,6.97,15.97,13.58,3.7,7.99,3,17.14,1.47,22.25.07.22.14.44.19.67,1.11,4.56-.86,8.62-5.28,10.87l-.06.03-.07.03s0,0-.01,0c-.2.37-.45.7-.74.99-1.11,2.95-3.06,5.54-5.6,7.39-4.14,3.01-9.8,4.53-16.83,4.53h.01Z"/>
  <path class="st1" d="M62.28,45.44c1.37-3.54,2.85-12.85-.91-20.98-2.64-5.72-7.33-9.68-13.92-11.77-15.25-4.85-24.32,5.47-25.49,6.91-.96.16-4.98,1.05-7.88,5.18-3.33,4.77-3.87,11.92-1.61,21.26-.09.22-.17.46-.24.71-.78,2.95.5,5.52,3.54,7.07.36.17,1.33.75,1.55,1.43.06.2.25.34.46.34.04,0,.08,0,.12-.02.76,2.75,2.4,5.22,4.78,6.96,2.96,2.16,7.6,3.88,14.84,3.88s11.87-1.73,14.83-3.88c2.38-1.74,4.03-4.21,4.78-6.96.04.01.08.02.12.02.18,0,.35-.1.43-.27,0-.01.02-.04.02-.05,0,0,0-.01,0-.02,0,0,0,0,0-.01.24-.68,1.2-1.25,1.54-1.41,0,0,.01,0,.02,0,3.01-1.53,4.26-4.04,3.52-7.05-.13-.54-.32-.97-.53-1.32h0Z"/>
  <g>
    <g>
      <g>
        <path class="st3" d="M55.63,37.15c-8.92-.42-11.59-3.46-14.34-8.27-.61-1.07-1.15-1.98-1.65-2.74-9.98.29-17.4,7.17-20.55,10.68.25,3.1.76,5.96-1.69,8.92.02.08.03.18.03.27v6.09c0,1.02.12,2.03.34,3.01.7,2.94,2.39,5.59,4.9,7.42,2.96,2.16,7.6,3.88,14.84,3.88s11.87-1.73,14.83-3.88c2.51-1.83,4.21-4.49,4.9-7.42,0-.01,0-.03.01-.05.22-.96.34-1.96.34-2.97v-6.09c0-.12.01-.23.04-.33-.53-6.01-2.02-8.52-2.02-8.52h0ZM44.46,53.39c-.68,1.24-2.44,2.68-6.87,2.77-.05,0-.1,0-.16,0-4.43-.09-6.19-1.52-6.87-2.77-.46-.85.16-1.88,1.15-1.88h11.6c.98,0,1.59,1.03,1.13,1.88h0Z"/>
        <g>
          <path class="st3" d="M17.78,55.11c-.33-1.05-1.81-1.73-1.81-1.73-3.17-1.62-3.91-4.11-3.28-6.51.75-2.78,2.73-2.53,3.87-2.11.43.16.75.53.83.97.03.08.03.18.03.27v6.09c0,1.02.12,2.03.35,3.01h0Z"/>
          <path d="M17.78,55.59c-.21,0-.4-.13-.46-.34-.22-.69-1.2-1.27-1.55-1.43-3.04-1.54-4.32-4.12-3.54-7.07.32-1.19.88-2,1.69-2.42.98-.51,2.08-.29,2.82-.02.6.22,1.02.72,1.13,1.33.02.07.04.21.04.36v6.09c0,.97.11,1.95.34,2.9.06.25-.09.5-.34.57-.04.01-.08.02-.13.02h0ZM15.24,44.99c-.3,0-.6.05-.88.2-.55.28-.95.89-1.2,1.81-.66,2.51.41,4.62,3.03,5.95.07.03.43.2.83.49-.04-.45-.07-.9-.07-1.35v-6.1c0-.08,0-.12-.01-.13-.06-.33-.26-.55-.54-.65-.33-.12-.74-.23-1.17-.23h0Z"/>
        </g>
        <g>
          <path class="st3" d="M44.46,53.39c-.68,1.24-2.44,2.68-6.87,2.77-.05,0-.1,0-.16,0-4.43-.09-6.19-1.52-6.87-2.77-.46-.85.16-1.88,1.15-1.88h11.6c.98,0,1.59,1.03,1.13,1.88h0Z"/>
          <path class="st0" d="M44.84,51.88c-.32-.53-.89-.85-1.52-.85h-11.6c-.63,0-1.21.32-1.53.86-.32.53-.33,1.18-.04,1.73.72,1.32,2.57,2.93,7.23,3.01.05,0,.1,0,.14,0,.03,0,.06,0,.08,0,4.7-.09,6.55-1.69,7.28-3.01h0c.29-.56.28-1.2-.04-1.74h0ZM44.03,53.16c-.6,1.1-2.21,2.43-6.45,2.51h-.14c-4.25-.08-5.85-1.41-6.45-2.51-.14-.26-.13-.54.02-.78.15-.25.4-.39.7-.39h11.6c.29,0,.55.14.69.39.15.25.15.53.02.78h0Z"/>
          <path class="st1" d="M44.03,53.16c-.6,1.1-2.21,2.43-6.45,2.51h-.14c-4.25-.08-5.85-1.41-6.45-2.51-.14-.26-.13-.54.02-.78.15-.25.4-.39.7-.39h11.6c.29,0,.55.14.69.39.15.25.15.53.02.78h0Z"/>
        </g>
        <path class="st0" d="M37.88,56.65c-.11,0-.22,0-.33-.01-.26-.02-.46-.26-.44-.52s.26-.46.52-.44c.08,0,.16,0,.25,0,.26,0,.48.22.48.48s-.22.48-.48.48h0Z"/>
        <g>
          <path class="st3" d="M59.07,53.38s-1.43.66-1.8,1.68c.22-.97.34-1.96.34-2.97v-6.09c0-.11.02-.23.04-.33.1-.41.59-.8.82-.9,1.1-.53,3.2-.63,3.87,2.11.59,2.41-.1,4.89-3.28,6.51h0Z"/>
          <path d="M57.27,55.55s-.09,0-.14-.02c-.24-.07-.39-.32-.34-.57.22-.95.33-1.91.33-2.86v-6.09c0-.14.02-.3.06-.45.15-.6.79-1.08,1.08-1.22.34-.16,1.54-.65,2.76-.07.61.29,1.41.96,1.79,2.5.74,3.01-.51,5.52-3.52,7.05,0,0-.01,0-.02,0-.35.16-1.3.73-1.54,1.41-.07.2-.25.32-.45.32h0ZM59.77,44.95c-.41,0-.8.11-1.09.25-.16.08-.51.38-.56.59-.02.07-.03.15-.03.21v6.09c0,.45-.02.9-.07,1.35.39-.28.74-.45.83-.5,3.29-1.68,3.46-4.17,3.02-5.96-.23-.95-.66-1.57-1.26-1.86-.27-.13-.56-.18-.84-.18h0ZM59.07,53.38h0,0Z"/>
        </g>
        <path class="st0" d="M57.25,55.59c-.07,0-.14-.01-.21-.05-.24-.12-.34-.4-.22-.64.12-.24.42-.36.66-.23.23.12.33.37.23.6,0,.02-.02.04-.02.05-.08.17-.25.27-.43.27h0Z"/>
        <path class="st0" d="M37.15,56.65c-.26,0-.48-.22-.48-.48s.23-.48.52-.48c.07,0,.14,0,.21,0,.26-.02.5.17.52.44s-.17.5-.44.52c-.11.01-.22.01-.33.01h0Z"/>
        <path d="M17.43,48.84c-.07,0-.15-.02-.23-.06h0s-1.16-.6-2.29-.34c-.26.06-.52-.1-.58-.36s.1-.52.36-.58c1.49-.35,2.9.39,2.96.42.23.13.32.42.2.65-.09.16-.25.25-.42.25h0Z"/>
        <path d="M57.61,48.84c-.17,0-.34-.09-.43-.25-.13-.23-.04-.53.2-.65.06-.03,1.47-.78,2.96-.42.26.06.42.32.36.58-.06.26-.32.42-.58.36-1.12-.26-2.27.33-2.29.34-.07.04-.15.05-.22.05h0Z"/>
        <path class="st0" d="M57.93,37.68c-.81,0-1.59-.02-2.32-.05-.26-.01-.47-.24-.46-.5.01-.27.26-.47.5-.46.71.03,1.47.05,2.27.05.26,0,.48.22.48.48s-.22.48-.48.48h0Z"/>
        <g>
          <path class="st4" d="M61.74,45.51c-.98-1.54-2.98-.93-3.27-.74-.36.24-.72.5-.82.91-.53-6.01-2.02-8.52-2.02-8.52-8.92-.42-11.59-3.46-14.34-8.27-.61-1.07-1.15-1.98-1.65-2.74-1.93-2.92-3.39-3.65-7.06-3.34-4.62.4-5.59,4.69-5.59,4.69-.16-.07-6.4-1.72-7.75,4.69-.34,1.63-.27,3.16-.15,4.64.25,3.1.76,5.96-1.69,8.92-.09-.44-.4-.81-.83-.97-1.15-.42-2.88-.57-3.59,1.31-5.97-24.36,9.24-26.04,9.24-26.04,0,0,8.93-12.03,25.08-6.9,19.54,6.21,16.51,27.43,14.44,32.36h0Z"/>
          <path d="M12.98,46.56h-.03c-.21-.01-.39-.16-.44-.37-2.31-9.42-1.78-16.63,1.57-21.42,2.89-4.14,6.92-5.03,7.88-5.18,1.17-1.44,10.24-11.75,25.49-6.91,6.6,2.1,11.28,6.06,13.92,11.77,3.85,8.33,2.21,17.9.82,21.23-.07.17-.22.28-.4.29-.18.02-.35-.07-.45-.22-.77-1.22-2.4-.7-2.6-.59-.31.21-.56.39-.62.62s-.25.38-.5.37c-.23-.02-.42-.2-.44-.44-.42-4.86-1.48-7.38-1.84-8.1-9.2-.49-11.8-3.84-14.46-8.51-.69-1.21-1.19-2.04-1.64-2.71-1.86-2.81-3.17-3.42-6.62-3.13-4.2.36-5.12,4.16-5.16,4.32-.03.14-.13.26-.25.32-.13.06-.28.07-.41.01h0s-2.52-.7-4.6.5c-1.26.73-2.1,2.02-2.49,3.84-.31,1.48-.28,2.87-.14,4.5l.07.77c.26,2.9.5,5.63-1.87,8.5-.12.14-.3.2-.49.16-.18-.05-.32-.19-.35-.37-.05-.28-.25-.5-.53-.61-.85-.31-2.36-.59-2.97,1.04-.07.19-.25.31-.45.31h0ZM39.51,12.36c-10.85,0-16.84,7.87-16.91,7.97-.08.11-.2.18-.33.19-.04,0-4.44.55-7.41,4.82-3.04,4.37-3.6,10.92-1.68,19.49.81-.87,2.07-1.07,3.56-.52.3.11.55.29.75.52,1.64-2.35,1.43-4.61,1.2-7.21l-.07-.77c-.13-1.49-.2-3.1.16-4.78.47-2.21,1.54-3.76,3.18-4.6,1.77-.91,3.78-.74,4.72-.56.43-1.19,1.9-4.25,5.87-4.59,3.83-.33,5.44.43,7.5,3.55.46.69.97,1.54,1.67,2.77,2.53,4.44,5.02,7.62,13.95,8.03.16,0,.31.09.39.23.06.1,1.37,2.35,1.97,7.59.06-.05.13-.09.19-.13.29-.2,1.28-.5,2.24-.3.43.09.81.26,1.12.52,1.22-3.64,2.35-12.32-1.07-19.73-2.52-5.46-7.01-9.25-13.35-11.26-2.76-.88-5.31-1.24-7.63-1.24h0Z"/>
        </g>
        <g>
          <path d="M32.54,46.85c-4.68-1.79-8.76-1.43-10.22-1.21-.11.02-.15-.13-.06-.18,5.35-2.8,9.27.2,10.39,1.24.08.07-.01.19-.11.16h0Z"/>
          <path d="M32.57,47.18s-.09,0-.14-.02c0,0-.01,0-.01,0-4.58-1.74-8.55-1.42-10.05-1.2-.2.03-.39-.09-.46-.28-.06-.2.02-.41.2-.5,5.55-2.91,9.64.25,10.75,1.28.15.14.17.35.07.51-.08.13-.22.2-.36.2h0ZM24.97,45.13c1.72,0,3.97.21,6.44.99-1.51-1.03-4.25-2.24-7.74-.95.39-.02.82-.04,1.3-.04h0ZM22.27,45.32h0Z"/>
        </g>
        <g>
          <path d="M52.87,45.64c-1.46-.22-5.53-.57-10.22,1.21-.1.03-.19-.08-.11-.16,1.12-1.04,5.04-4.04,10.39-1.24.1.05.05.2-.06.18h0Z"/>
          <path d="M42.62,47.17c-.15,0-.28-.07-.36-.2-.1-.16-.07-.37.06-.51,1.12-1.04,5.2-4.2,10.76-1.29.18.09.27.3.21.49-.06.2-.25.32-.46.29h0c-1.5-.22-5.47-.55-10.05,1.2-.05.02-.1.02-.15.02h0ZM48.51,44.62c-2.05,0-3.68.79-4.73,1.5,3.16-.99,5.95-1.06,7.73-.95-1.08-.4-2.09-.56-3.01-.56h0ZM52.78,45.74s0,0,.01,0c0,0,0,0-.01,0ZM52.92,45.32h0,0ZM52.92,45.32h0Z"/>
        </g>
      </g>
      <path d="M33.73,40.36l-11.88.24c-.23,0-.33-.29-.15-.43.93-.73,3-2.11,5.39-2.15,1.71-.03,3.3-.03,4.47-.02,1.11,0,2.12.67,2.58,1.7h0c.14.3-.08.65-.41.66h0Z"/>
      <path d="M41.46,40.36l11.88.24c.23,0,.33-.29.15-.43-.93-.73-3-2.11-5.39-2.15-1.71-.03-3.3-.03-4.47-.02-1.11,0-2.12.67-2.58,1.7h0c-.14.3.08.65.41.66h0Z"/>
      <path d="M31.15,52.45c1.45.79,3.23,1.11,4.87,1.39-.87.03-1.75.02-2.63-.04-.94-.08-1.76-.16-2.7-.49-.25-.1-.37-.38-.28-.63.11-.29.48-.4.73-.22h0Z"/>
      <path d="M44.34,53.3c-1.74.59-3.53.56-5.32.54,1.65-.28,3.43-.59,4.89-1.4.6-.36,1.08.59.44.86h0Z"/>
    </g>
    <path d="M37.52,66.89c-6.41,0-11.5-1.34-15.12-3.97-2.54-1.85-4.35-4.59-5.09-7.69-.24-1.02-.35-2.07-.35-3.12v-6.09s0-.1-.02-.15c-.04-.15,0-.3.09-.42,2.12-2.57,1.91-4.99,1.65-7.8-.02-.26-.05-.52-.07-.78-.01-.13.03-.26.12-.35,2.83-3.16,10.53-10.53,20.88-10.84.16,0,.32.07.41.21.46.7.98,1.55,1.67,2.77,2.53,4.44,5.02,7.62,13.95,8.04.12,0,.23.05.31.14h0s.05.06.07.1c.06.11,1.55,2.67,2.08,8.72,0,.05,0,.11-.01.16-.02.06-.02.13-.02.21v6.09c0,1.01-.12,2.05-.35,3.07,0,.01,0,.02,0,.03,0,.01,0,.03-.01.04-.74,3.1-2.54,5.82-5.08,7.67-3.63,2.64-8.71,3.97-15.11,3.97ZM17.9,45.87s0,.09,0,.13v6.09c0,.98.11,1.96.33,2.91.69,2.89,2.36,5.43,4.72,7.15,3.46,2.52,8.35,3.79,14.56,3.79s11.09-1.28,14.55-3.79c2.36-1.72,4.04-4.26,4.72-7.15,0,0,0-.02,0-.03,0-.01,0-.03.01-.04.22-.95.32-1.9.32-2.84v-6.09c0-.13.01-.25.04-.36-.43-4.8-1.49-7.32-1.83-8.03-9.2-.49-11.8-3.84-14.46-8.5-.61-1.07-1.08-1.85-1.49-2.49-9.7.4-16.98,7.25-19.81,10.36.02.19.03.38.05.57.25,2.84.49,5.52-1.73,8.32ZM37.52,56.64s-.07,0-.11,0c-2.14-.05-3.88-.41-5.17-1.08-.94-.49-1.64-1.14-2.08-1.93-.29-.55-.28-1.19.04-1.72.32-.54.89-.86,1.53-.86h11.6c.63,0,1.19.32,1.51.85.32.53.33,1.18.04,1.72,0,.02-.02.03-.03.05-.43.77-1.12,1.41-2.07,1.9-1.28.66-3.02,1.02-5.15,1.07-.04,0-.07,0-.11,0ZM31.72,51.98c-.3,0-.57.15-.71.4-.15.25-.15.53-.02.79.34.62.91,1.15,1.68,1.54,1.16.61,2.77.93,4.78.97.02,0,.03,0,.05,0,.02,0,.02,0,.04,0,.02,0,.03,0,.05,0,2-.04,3.6-.36,4.75-.96.79-.41,1.37-.94,1.7-1.56,0-.01.01-.02.02-.04.12-.25.11-.52-.04-.75-.15-.25-.41-.39-.7-.39h-11.6Z"/>
  </g>
  <g>
    <path class="st4" d="M40.26,26.85c-11.2-.02-18.12,5.87-21.16,9.71-.13-1.48-.2-3.01.15-4.64,1.36-6.41,7.6-4.76,7.75-4.69,0,0,.97-4.29,5.59-4.69,3.67-.32,5.69.43,7.67,4.31Z"/>
    <path d="M19.1,36.88s-.06,0-.09-.01c-.13-.04-.22-.15-.23-.28-.13-1.48-.2-3.07.15-4.74.46-2.16,1.5-3.67,3.09-4.49,1.88-.97,3.94-.68,4.75-.51.34-1.03,1.73-4.28,5.78-4.63,3.62-.31,5.84.29,7.99,4.48.05.1.05.22-.01.31s-.16.15-.27.15h-.06c-11.98,0-18.57,6.7-20.84,9.59-.06.08-.16.12-.25.12h0ZM25.07,27.31c-.87,0-1.94.15-2.93.71-1.32.75-2.19,2.09-2.59,3.97-.26,1.25-.28,2.44-.2,3.75,2.69-3.16,9.19-9.05,20.37-9.21-1.91-3.46-3.85-3.95-7.11-3.67-4.33.37-5.26,4.27-5.3,4.44-.02.09-.08.17-.17.21-.08.04-.19.05-.27.01,0,0-.76-.21-1.8-.21h0Z"/>
  </g>
</svg>