<?xml version="1.0" encoding="UTF-8"?>
<svg id="Layer_1" xmlns="http://www.w3.org/2000/svg" version="1.1" viewBox="0 0 49.89 50">
  <!-- Generator: Adobe Illustrator 29.5.0, SVG Export Plug-In . SVG Version: 2.1.0 Build 137)  -->
  <path d="M27.35.12c11.64,1.11,21.1,10.42,22.38,22.04,1.66,15.08-10.1,27.84-24.84,27.84C11.91,50,1.24,40.11.01,27.45c-.13-1.32.94-2.45,2.27-2.45,1.19,0,2.14.91,2.26,2.08,1.04,10.32,9.76,18.37,20.35,18.37,12.06,0,21.68-10.44,20.33-22.77-1.05-9.56-8.9-17.21-18.48-18.06-6.57-.58-12.55,1.97-16.67,6.31l-3.16-3.29C11.98,2.39,19.32-.65,27.35.12Z"/>
  <path d="M5.44,1.99l10.01,11.16c.87.97.27,2.52-1.03,2.65l-12.64,1.27c-1.07.11-1.94-.86-1.72-1.92L2.69,2.73c.27-1.28,1.87-1.7,2.75-.73Z"/>
</svg>