<?xml version="1.0" encoding="UTF-8"?>
<svg id="Layer_1" xmlns="http://www.w3.org/2000/svg" version="1.1" viewBox="0 0 1880 1550">
  <!-- Generator: Adobe Illustrator 29.0.0, SVG Export Plug-In . SVG Version: 2.1.0 Build 186)  -->
  <defs>
    <style>
      .st0 {
        fill: #6ed9ff;
      }
    </style>
  </defs>
  <polygon class="st0" points="1541.33 792.97 1558.86 855.32 1549.02 901.69 1498.23 991.02 1439.22 1021.21 1342.4 1034.39 1287.87 981.93 1263.95 966.99 1250.71 952.82 1180.49 941.55 1145.02 962.74 1086.28 1025.56 1077.77 1056.21 1032.19 1091.88 954.24 1091.88 934.44 1071.81 892.06 1076.1 858.19 1046.65 805.68 1030.32 793.67 1003.57 763.79 1003.57 733.26 943.6 688.52 943.6 625.14 920.12 558.72 871.19 541.41 840.77 499.64 826.37 437.29 776.96 408.04 719.69 412.91 642.71 442.82 645.03 438.49 713.37 461.03 757.5 514.26 799.68 561.89 816.09 581.65 850.81 639.53 893.46 693.9 913.6 751.65 913.6 782.18 973.57 813.08 973.57 827.51 1005.69 873.12 1019.88 901.95 1044.95 945.7 1040.52 966.79 1061.88 1021.85 1061.88 1051.51 1038.67 1059.35 1010.45 1126 939.16 1174.47 910.2 1265.62 924.82 1283.18 943.63 1306.42 958.14 1352.74 1002.71 1430.1 992.17 1476.58 968.39 1520.64 890.91 1527.98 856.32 1509.8 791.65 1532.99 729.63 1564.12 732.05 1541.33 792.97"/>
</svg>