<?xml version="1.0" encoding="UTF-8"?>
<svg id="Layer_1" xmlns="http://www.w3.org/2000/svg" version="1.1" viewBox="0 0 1880 1550">
  <!-- Generator: Adobe Illustrator 29.0.0, SVG Export Plug-In . SVG Version: 2.1.0 Build 186)  -->
  <defs>
    <style>
      .st0 {
        fill: #f2f2f2;
        stroke: #333;
        stroke-miterlimit: 10;
        stroke-width: 2px;
      }
    </style>
  </defs>
  <polygon class="st0" points="865.93 869.31 869.61 910.61 842.21 933.91 825.46 922.06 803.38 938.83 803.38 988.56 772.98 988.56 742.46 928.6 691.21 928.6 632.33 906.78 570.18 861 551.66 828.43 506.96 813.03 449.16 767.23 423.26 716.53 482.69 703.18 482.69 663.38 521.94 628.21 587.91 635.03 611.61 707.41 648.83 740.93 713.01 772.81 721.61 818.21 814.01 828.43 878.2 812.08 902.73 839.46 865.93 869.31"/>
  <polygon class="st0" points="865.11 433.06 826.28 486.61 836.5 516.46 807.88 556.11 787.43 560.21 766.98 607.64 703.61 664.88 659.06 669.78 611.61 707.41 587.91 635.03 609.71 598.51 583.81 518.36 621.16 476.94 654.96 339.56 732.11 310.39 789.06 269.79 848.21 286.41 880.38 346.91 935.16 401.71 865.11 433.06"/>
  <polygon class="st0" points="1273.57 486.61 1227.37 504.19 1193.85 541.81 1164 529.54 1140.7 507.06 1107.58 503.39 1082.63 454.71 1057.83 446.14 1039.7 408.94 1000.85 411.79 960.51 387.81 973.33 348.56 944.16 303.84 950.7 259.42 987.78 243.61 1001.13 205.44 986.4 156.39 1020.75 127.49 1057.83 114.42 1101.85 190.59 1135.38 198.77 1139.05 228.22 1112.08 250.69 1116.15 282.59 1103.48 297.72 1123.93 327.16 1148.87 329.19 1204.07 387.26 1239.22 413.84 1270.7 448.99 1273.57 486.61"/>
  <path class="st0" d="M1306.7,343.91l-20.24,24.55-17.39-12.27-21.67,18.8-8.18,38.85-35.15-26.57-55.2-58.07-24.95-2.03-20.45-29.45,12.67-15.13-4.08-31.9,26.98-22.48-3.68-29.45-33.52-8.18-44.02-76.18,49.88-89.42,63.25,8.2s19.62,43.05,20.7,44.7l55.35.53,36.8,24.27-2.87,53.15-14.72,28.2v30.67l32.3,48.25,8.2,80.95Z"/>
  <path class="st0" d="M1495.85,448.86l3.55,18.53-9.53,19.22-23.32,6.13-29.85-15.93-72.35,38.43h-42.52l-48.25-28.62-2.87-37.62-31.48-35.15,8.18-38.85,21.67-18.8,17.39,12.27,20.24-24.55-8.2-80.95-32.3-48.25v-30.67l14.72-28.2,2.87-53.15,44.97-9,62.68-35.43,28.35,39.52,39-4.92,18.53,23.72-18.8,46.07,9.25,83.4-38.7,23.17,2.18,15.53,44.45,39.8,52.88,13.08s14.17,65.15,14.17,66.25-46.9,44.97-46.9,44.97Z"/>
  <polygon class="st0" points="1374.97 554.55 1326.32 558.58 1302.2 588.83 1267.02 585.96 1229 605.18 1229 630.53 1198.35 649.34 1187.3 683.28 1162.35 704.53 1117.04 687.78 1083.03 684.09 1066.28 659.98 1060.15 629.31 1034.8 621.54 992.68 624.41 970.6 598.64 992.68 564.71 981.23 491.94 955.88 434.29 935.16 401.71 960.51 387.81 1000.85 411.79 1039.7 408.94 1057.83 446.14 1082.63 454.71 1107.58 503.39 1140.7 507.06 1164 529.54 1193.85 541.81 1227.37 504.19 1273.57 486.61 1321.82 515.24 1364.35 515.24 1374.97 554.55"/>
  <polygon class="st0" points="1566.45 620.04 1531.84 644.84 1531.29 681.36 1498.57 713.26 1455.1 749.51 1401.15 747.46 1401.15 676.73 1361.26 658.33 1347.57 594.56 1371.3 587.19 1374.97 554.55 1364.35 515.24 1436.7 476.81 1466.55 492.74 1489.87 486.61 1499.4 467.39 1532.65 470.39 1561.54 488.11 1566.45 620.04"/>
  <polygon class="st0" points="570.18 861 545.11 886.08 505.86 880.08 484.59 871.36 437.16 871.36 429.54 912.23 437.16 954.23 409.36 975.48 361.39 983.65 340.14 973.85 331.96 925.33 310.14 914.96 273.62 944.13 236.01 899.98 153.14 920.96 126.71 895.08 70.82 879.53 19.04 821.21 70.82 750.88 82.82 710.26 153.69 653.29 141.97 583.24 194.04 549.99 309.06 662.28 423.26 716.53 449.16 767.23 506.96 813.03 551.66 828.43 570.18 861"/>
  <polygon class="st0" points="547.83 983.65 524.39 1003.83 528.76 1052.35 485.69 1061.6 477.51 1104.68 446.99 1104.68 435.54 1081.78 384.29 1070.33 342.31 1096.5 339.59 1116.68 313.41 1128.68 305.24 1097.05 265.99 1050.7 265.17 1000.01 273.62 944.13 310.14 914.96 331.96 925.33 340.14 973.85 361.39 983.65 409.36 975.48 437.16 954.23 429.54 912.23 437.16 871.36 484.59 871.36 505.86 880.08 545.11 886.08 550.01 922.33 562.01 947.13 547.83 983.65"/>
  <polygon class="st0" points="1543.42 855.81 1534.84 896.3 1487.4 979.7 1434.67 1006.68 1347.57 1018.55 1297.15 970.03 1330 931.05 1330 902.83 1371.7 854.58 1369.31 798.98 1401.15 747.46 1455.1 749.51 1498.57 713.26 1501.04 775.01 1525.57 792.31 1543.42 855.81"/>
  <polygon class="st0" points="1861.11 833.73 1830.59 885.26 1779.34 891.53 1733.27 912.78 1730.82 947.13 1665.12 1054.53 1615.24 1018.55 1599.72 986.38 1583.07 974.93 1586.89 932.41 1573.82 908.43 1534.84 896.3 1543.42 855.81 1525.57 792.31 1569.17 771.58 1680.39 736.98 1787.79 668.28 1822.39 696.63 1822.94 751.68 1861.11 833.73"/>
  <path class="st0" d="M1760.26,1112.3c0,2.73-16.65,74.42-16.65,74.42l-31.07,23.17v44.7l-70.32,2.73-10.35,7.35,6,30.27-2.45,3.25-35.7,4.1-19.37-46.6-28.35-13.65-19.62-53.95-43.6-15.27-22.35-26.17-94.72-29.43-20.85-50.17-3.27-48.5,87.1-11.87,52.73-26.98,47.45-83.4,38.98,12.13,13.08,23.98-3.82,42.52,16.65,11.45,15.53,32.17,49.88,35.98,25.35,45.52s69.8,9.53,69.8,12.25Z"/>
  <polygon class="st0" points="1599.72 1302.3 1578.72 1350 1548.47 1365.55 1513.85 1339.1 1477.05 1349.72 1449.52 1281.3 1419 1262.78 1384.1 1278.05 1362.3 1269.32 1338.85 1282.4 1338.85 1297.12 1313.22 1312.38 1244 1256.23 1254.35 1234.97 1237.45 1216.43 1208.55 1212.08 1176.95 1178.28 1176.95 1147.75 1133.88 1063.8 1131.15 1020.73 1105.21 983.36 1135.5 950.95 1177.48 925.88 1258.17 938.83 1273.57 955.31 1297.15 970.03 1347.57 1018.55 1350.85 1067.05 1371.7 1117.23 1466.42 1146.65 1488.77 1172.83 1532.37 1188.1 1552 1242.05 1580.35 1255.7 1599.72 1302.3"/>
  <path class="st0" d="M1445.42,1387.07s.27,45.25,1.1,45.25c0,.19-73.87,16.9-73.87,16.9l-18.53,62.7-70.05,13.08-37.9-43.07-43.88-20.7-4.1-126.49-21.8-8.98s-23.3,42.52-24.27,42.52c-.8-.27-60.78-4.65-60.78-4.65l-26.98-47.15-22.35-9.55-21,33.52-29.45-47.15-23.36-8.72-9.34-25.62,20.17-19.62v-69.23l12.53-14.45-3.25-26.98-20.11-2.2-8.79-28.35,1.08-21.25h66.52l37.62-29.45,8.18-29.43,32.38-34.64,25.94,37.37,2.73,43.07,43.07,83.95v30.53l31.6,33.8,28.9,4.35,16.9,18.55-10.35,21.25,69.23,56.15,25.62-15.25v-14.72l23.45-13.08,21.8,8.72,34.9-15.27,30.53,18.53,27.53,68.42-31.62,37.35Z"/>
  <polygon class="st0" points="1021.03 1340.45 972.5 1361.72 949.88 1414.87 905.18 1427.15 871.11 1462.57 789.33 1462.57 743.28 1436.4 734.56 1409.15 720.11 1402.87 704.28 1372.9 681.41 1372.9 668.31 1354.9 672.68 1331.47 643.23 1309.65 635.06 1284.58 661.23 1271.5 649.78 1246.42 611.61 1237.15 615.98 1207.72 703.21 1184.28 727.18 1155.93 758.81 1157.55 773.53 1185.35 785.53 1184.28 799.16 1167.38 839.48 1166.83 853.04 1177.45 876.56 1166.83 888.55 1180.45 888.55 1231.15 909.28 1258.95 958.88 1258.95 968.22 1284.58 991.58 1293.3 1021.03 1340.45"/>
  <polygon class="st0" points="720.11 1402.87 674.58 1462.57 601.81 1462.57 590.08 1423.05 528.48 1343.72 543.74 1324.37 540.76 1296.03 499.59 1261.4 486.78 1177.45 528.21 1193 548.93 1207.72 558.19 1237.15 611.61 1237.15 649.78 1246.42 661.23 1271.5 635.06 1284.58 643.23 1309.65 672.68 1331.47 668.31 1354.9 681.41 1372.9 704.28 1372.9 720.11 1402.87"/>
  <polygon class="st0" points="615.98 1207.72 611.61 1237.15 558.19 1237.15 548.93 1207.72 528.21 1193 486.78 1177.45 455.16 1161.38 416.99 1228.98 377.74 1220.53 348.04 1266.05 287.26 1264.68 232.74 1242.33 253.46 1197.08 249.91 1160.55 231.92 1128.4 265.99 1050.7 305.24 1097.05 313.41 1128.68 339.59 1116.68 342.31 1096.5 384.29 1070.33 435.54 1081.78 446.99 1104.68 477.51 1104.68 485.69 1061.6 528.76 1052.35 573.46 1080.7 593.08 1177.45 615.98 1207.72"/>
  <polygon class="st0" points="897 760.13 878.2 812.08 814.01 828.43 721.61 818.21 713.01 772.81 648.83 740.93 611.61 707.41 659.06 669.78 703.61 664.88 766.98 607.64 787.43 560.21 807.88 556.11 867.56 595.78 874.93 657.11 861.85 714.36 885.96 731.72 897 760.13"/>
  <polygon class="st0" points="1401.15 676.73 1401.15 747.46 1369.31 798.98 1278.47 778.96 1253.95 730.92 1224.5 720.88 1187.7 740.93 1162.35 731.93 1162.35 704.53 1187.3 683.28 1198.35 649.34 1229 630.53 1229 605.18 1267.02 585.96 1302.2 588.83 1326.32 558.58 1374.97 554.55 1371.3 587.19 1347.57 594.56 1361.26 658.33 1401.15 676.73"/>
  <polygon class="st0" points="1162.35 704.53 1162.35 731.93 1145.6 747.88 1099.8 756.06 1038.88 751.96 1007.8 763.41 946.88 750.73 897 760.13 885.96 731.72 861.85 714.36 874.93 657.11 867.56 595.78 807.88 556.11 836.5 516.46 826.28 486.61 865.11 433.06 935.16 401.71 955.88 434.29 981.23 491.94 992.68 564.71 970.6 598.64 992.68 624.41 1034.8 621.54 1060.15 629.31 1066.28 659.98 1083.03 684.09 1117.04 687.78 1162.35 704.53"/>
  <polygon class="st0" points="1158.27 778.96 1145.6 808.81 1123.52 823.11 1082.23 881.58 980.41 862.78 935.16 836.61 902.73 839.46 878.2 812.08 897 760.13 946.88 750.73 1007.8 763.41 1038.88 751.96 1099.8 756.06 1145.6 747.88 1158.27 778.96"/>
  <polygon class="st0" points="1371.7 854.58 1330 902.83 1330 931.05 1297.15 970.03 1273.57 955.31 1258.17 938.83 1177.48 925.88 1135.5 950.95 1118.6 922.06 1094.9 917.15 1082.23 881.58 1123.52 823.11 1145.6 808.81 1158.27 778.96 1145.6 747.88 1162.35 731.93 1187.7 740.93 1224.5 720.88 1253.95 730.92 1278.47 778.96 1369.31 798.98 1371.7 854.58"/>
  <polygon class="st0" points="1135.5 950.95 1105.21 983.36 1072.83 1018 1064.65 1047.43 1027.03 1076.88 960.51 1076.88 940.08 1056.15 897 1060.53 865.66 1033.26 816.6 1018 803.38 988.56 803.38 938.83 825.46 922.06 842.21 933.91 869.61 910.61 865.93 869.31 902.73 839.46 935.16 836.61 980.41 862.78 1082.23 881.58 1094.9 917.15 1118.6 922.06 1135.5 950.95"/>
  <polygon class="st0" points="816.6 1018 786.06 1038.73 731.56 1038.73 704.28 1097.6 709.21 1118.85 704.28 1141.75 645.41 1159.75 615.98 1207.72 593.08 1177.45 573.46 1080.7 528.76 1052.35 524.39 1003.83 547.83 983.65 562.01 947.13 550.01 922.33 545.11 886.08 570.18 861 632.33 906.78 691.21 928.6 742.46 928.6 772.98 988.56 803.38 988.56 816.6 1018"/>
  <polygon class="st0" points="991.58 1155.65 979.05 1170.1 979.05 1239.33 958.88 1258.95 909.28 1258.95 888.55 1231.15 888.55 1180.45 876.56 1166.83 853.04 1177.45 839.48 1166.83 799.16 1167.38 785.53 1184.28 773.53 1185.35 758.81 1157.55 727.18 1155.93 703.21 1184.28 615.98 1207.72 645.41 1159.75 704.28 1141.75 709.21 1118.85 704.28 1097.6 731.56 1038.73 786.06 1038.73 816.6 1018 865.66 1033.26 897 1060.53 940.08 1056.15 960.51 1076.88 959.43 1098.13 968.22 1126.48 988.33 1128.68 991.58 1155.65"/>
</svg>